<svg version="1.0" xmlns="http://www.w3.org/2000/svg" width="896" height="896" viewBox="0 0 672 672"><path d="M201.9 34.4c-.2.2-2.2.6-4.4.9-5.4.7-7.9 1.3-13.9 3.4-2.8.9-5.3 1.8-5.6 1.8-2.3.6-14.6 7.5-17.9 9.9-4.1 3.2-15.2 14.8-18.7 19.6-4.6 6.2-11.3 19.1-13.9 26.5-.9 2.7-2 5.7-2.3 6.5-1.1 3.1-4.9 19.7-5.6 24.5-2.8 19.6-2.8 54.3-.1 72.5.2 1.4.7 4.8 1.1 7.5l.6 5-10.8 4.4c-6 2.5-11 4.8-11.2 5.3-.2.4-.8.8-1.3.8-.9 0-13 5.8-17.4 8.4-1.1.6-4.7 2.7-8 4.6-29.1 16.7-52.3 39.8-63.5 63.1-6.2 13-8.9 25-8.5 38.4.4 12.8 1 16.9 3.8 25 5.8 16.9 15.2 31.2 30.2 45.9 5 4.9 9.1 8.3 22 18.4 1.5 1.2 12.2 8.1 18 11.5 7.4 4.4 28.8 14.9 38.2 18.8l8.3 3.3-.6 6.5c-.4 3.6-.8 6.9-1 7.2-.8 1.4-1.8 21.2-1.8 36.9 0 15.4.7 28.1 2 34.5.2 1.1.6 3.3.9 5 .7 4.1 2.5 12.7 3.1 14.5.3.8.5 1.5.4 1.5-.2 0 4.1 11.9 5.5 15.2 6.2 13.9 12.1 22.9 21 31.9 13.1 13.2 26.5 20.3 44.9 23.9 6.9 1.3 28.5 1.4 35.1.1 1.7-.3 3.9-.7 5-.9s2.7-.7 3.6-1.1 2-.6 2.5-.5 1.6 0 2.4-.4c.8-.3 4.2-1.3 7.5-2.2 20.2-5.6 47.5-20.3 73.7-39.7l10.8-8 10.8 8c5.9 4.4 15.7 11.1 21.7 15 13.7 8.6 38.9 21.2 42.3 21.2.7 0 2 .4 3 .9 4.5 2.3 14 5.1 22.7 6.7 1.7.3 4.1.8 5.5 1.1 1.4.2 7.9.6 14.5.8 11.2.4 13.9.1 29.3-3.1 4.3-.9 16.6-6.7 22.7-10.8 5.1-3.3 17.4-14.9 21.1-19.7 2-2.8 10.6-17.3 10.8-18.3.1-.6.5-1.6.8-2.2.4-.5 1.6-3.5 2.8-6.5 1.9-4.8 2.5-6.4 3.3-10.4.2-.6.5-1.5.9-2 .4-.6 1.4-5.1 2.3-10 1-5 1.9-9.8 2-10.7 1.9-9.8 2.6-48 1.1-60.8-.4-3.6-.8-8.6-.9-11.2-.1-2.7-.4-4.8-.7-4.8s-.6-1.7-.8-3.9c-.2-3.7-.1-3.9 4.5-5.6 8.2-3.1 29.4-13.2 37.8-17.9 34.4-19.4 58.4-42.8 70.4-68.7 2.1-4.6 4.1-9.5 4.4-10.9s1.2-5.1 2-8.3c2.2-8.6 1.5-28.1-1.2-37.7-6.3-21.8-16.7-36.9-40.1-58.3-.8-.8-5.1-4-9.5-7.3-4.4-3.2-8.2-6.1-8.5-6.4s-1.6-1.1-3-1.9-5.3-3.2-8.8-5.3c-8.3-5.1-29.6-15.7-40-19.9l-8.3-3.3.6-5.1c.3-2.7.8-6.6 1.1-8.5 1.3-10.6 1.7-18.3 1.8-34.5.1-18.5-.8-31.5-2.8-41.5-.3-1.4-.7-3.6-1-5-2.5-14.3-10.2-33.5-18.4-45.8-10.4-15.7-27.7-28.9-44.3-33.8-10.7-3.2-15.5-3.8-28.4-3.8-16.2 0-27.1 1.8-42.3 6.9-11.5 3.9-12.5 4.4-28 12.2-14.9 7.5-30.9 17.7-44.7 28.2-4.3 3.4-8.2 6.1-8.6 6.1s-2.5-1.5-4.7-3.3c-12.6-10.4-32.5-23.2-49.7-31.8-11-5.6-14.2-7-18.5-8.3-.3-.1-.9-.4-1.5-.7-2.9-1.8-20.7-6.8-26.5-7.5-1.4-.2-3.6-.6-5-.9-2.9-.8-27.4-1.7-28.1-1.1zM234.5 69c19.4 5.2 37.1 13.4 57.3 26.7 6.8 4.5 19.2 13.4 19.2 13.8 0 .2-5.5 5.9-12.2 12.7-6.8 6.8-15 15.5-18.3 19.2-3.3 3.8-7.3 8.3-9 10.1-1.6 1.8-4.3 5-6 7.1-1.6 2.1-3.5 4.2-4 4.8-.6.6-2.6 3.1-4.5 5.6s-3.7 4.7-4 5-1.7 2.2-3.2 4.2c-2.8 3.7-4.1 4.2-12.8 5.3-6.2.7-27.3 4.3-36.2 6.1-1.5.3-3 .5-3.3.5-.2 0-1.9.5-3.7 1-1.8.6-4.5 1.2-6 1.4s-4.6.9-7 1.6c-2.4.6-5.2 1.3-6.3 1.5s-6.5 1.7-12 3.3c-5.5 1.5-10.1 2.8-10.2 2.7-2.1-1.7-3.7-47.3-2.1-61.9 1-8.7 3.7-21.5 6-28.2 2.6-7.5 7.9-18.9 9-19.3.4-.2.8-.8.8-1.3 0-2.6 11.6-14 18.3-17.8 12.5-7.1 32.7-8.8 50.2-4.1zm241-1c6.4 2.1 16.5 7 16.5 8.1 0 .5.5.9 1.1.9 1.7 0 11.7 10.9 13.2 14.2.6 1.5 1.5 2.8 1.8 2.8.4 0 1.6 2.4 2.8 5.2 1.2 2.9 2.6 6.2 3.1 7.3 2.2 4.9 3.9 11.3 6.5 24.5 2.7 13.5 2.6 49.5-.1 66.9-.3 2-.7 3.7-.7 3.7-.2.1-8.5-2.1-20.7-5.6-4.5-1.3-23.6-5.7-27.5-6.4-1.6-.3-3.9-.7-5-.9-3.4-.8-18.8-3.5-23-4.1-2.2-.3-5.1-.8-6.5-1s-4.6-.7-7.2-1.1c-3.8-.5-5.2-1.3-7.5-4.2-5.1-6.6-13-16.3-16.3-20.2-11.7-13.9-20.7-23.7-33.8-36.9l-11.3-11.5 3.3-2.8c1.8-1.5 3.5-2.8 3.8-2.9.3 0 3.2-2 6.5-4.5s6.5-4.5 7.2-4.5c.6 0 1.3-.4 1.5-.8.8-2 28-16.5 37.2-19.9 9.1-3.3 20.4-6.4 25.1-6.9 2.8-.3 5.2-.8 5.4-1 .9-.9 21 .4 24.6 1.6zm-124.7 77.2c7.7 7.9 15.6 16 17.4 18.1s5.2 6 7.6 8.5c2.3 2.6 4.2 5 4.2 5.3 0 .4-4.4.4-9.7.1-12.8-.7-57.2-.6-69.1.1-5.1.3-9.2.2-9-.3 1.2-3.2 41.9-46 43.8-46 .4 0 7 6.4 14.8 14.2zm21.6 64.2c8 .5 20.3 1.4 27.6 2.2 1.4.1 3.7.2 5.2.3 1.8.1 3.2 1.1 4.7 3.4 1.1 1.8 3.1 4.6 4.5 6.2 1.4 1.7 2.6 3.4 2.6 3.8s.8 1.7 1.8 2.8c1.1 1 2.5 3.2 3.3 4.7s1.7 2.9 2 3.2c.5.5 5.3 7.7 7.6 11.5.7 1.1 4.1 6.7 7.6 12.5 8.2 13.4 15.1 25.4 15 26 0 .3.7 1.6 1.7 3 .9 1.4 6.1 11.5 11.5 22.5 5.3 11 10.1 20.8 10.6 21.7.5 1 .9 2.5.9 3.3 0 1.8-17.6 37.9-24.4 50-2.5 4.4-5.6 10.1-7.1 12.8-5.8 10.7-21.9 36-32.4 50.9-6 8.7-8 10.8-10.1 10.9-1.4.1-4.1.3-6 .5-33.5 3.3-77.1 3.6-116.5.9-4.4-.3-8.9-.7-10-1-1.1-.2-3.4-.4-5.1-.4-3.4-.1-3.9-.7-19.1-23.6-5.1-7.7-9.7-14.5-10.3-15.2-.5-.7-1-1.5-1-1.8s-1.2-2.4-2.7-4.8c-4.5-6.9-6.3-10.1-6.9-12-.4-.9-1-1.7-1.5-1.7s-.9-.4-.9-.9-1.6-3.8-3.6-7.3c-2-3.4-6.2-11.3-9.4-17.3-3.1-6.1-6.5-12.6-7.6-14.5-1-1.9-1.8-3.7-1.9-4-.1-.6-8.3-18-9.4-20-.6-1-.2-2.8.9-5 1-1.9 5.9-12.1 11-22.5 5.1-10.5 9.5-19.2 9.9-19.5.3-.3 1.6-2.5 2.8-5 2.6-5.1 5.8-10.8 9-16 1.2-2 2.8-4.7 3.5-6 .7-1.4 4.6-7.7 8.6-14s7.8-12.4 8.5-13.5 1.4-2.2 1.7-2.5 2.3-3.2 4.5-6.5c2.1-3.3 4.4-6.6 5.1-7.2.7-.7 2.2-2.8 3.4-4.8 1.6-2.5 2.9-3.5 4.8-3.6 1.5 0 3.6-.2 4.7-.4 3.3-.6 17.2-1.5 32-2.1 7.7-.3 14.1-.7 14.2-.8.5-.4 46.1.2 54.7.8zm-152 9.8c-.5.7-3.6 5.7-7.1 11.1S207 240.5 207 241c0 .6-.4 1-.9 1s-1.4 1.2-2 2.7c-1.3 3.1-4.3 8.5-5.2 9.3-1 .9-11 19.3-17.9 32.8-2.3 4.6-4.6 8-5 7.5-1.6-1.7-13.4-39.3-15.5-49.4-.2-.9-.8-3.4-1.4-5.5-1.2-4.4-1.4-7.1-.5-6.1.4.3 1.9 0 3.5-.9 1.6-.8 3.1-1.4 3.4-1.4.3.1 3.1-.6 6.3-1.6 3.1-.9 6.4-1.8 7.2-1.9s6-1.4 11.5-2.7c5.5-1.4 11.6-2.8 13.5-3.2 1.9-.3 4.6-.9 6-1.2s4.1-.7 6-1c1.8-.3 3.6-.7 3.9-.9.9-1 1.2-.5.5.7zm241.6 1.2c2.4.5 3.7.8 9 2 1.4.3 3.6.8 5 1 3.3.5 22.8 5.4 26 6.5 1.4.5 4.4 1.4 6.8 2.2 2.4.7 4.5 1.6 4.8 2 1.1 1.9-15 57.6-17.5 60.2-.4.4-2.4-2.5-4.5-6.5-5.1-9.8-18.1-33.3-21.2-38.3-1.3-2.2-2.7-4.7-3.1-5.5s-.9-1.7-1.2-2c-.4-.3-2.4-3.4-4.5-7-2.2-3.6-5.4-8.7-7.3-11.4l-3.5-4.8 4.4.6c2.4.3 5.4.7 6.8 1zm-332.9 30.3c.7 3.2 1.4 6.2 1.5 6.8.2.5.5 1.9.8 3 1.4 6 12.7 41.6 14.5 46 3.7 8.6 11.1 28.6 11.1 29.8 0 .9-2.5 8-5.6 15.9-5.6 14.5-15.2 42.3-16 46.7-.3 1.4-.7 2.8-1 3.3-.3.4-.7 1.6-.9 2.5-1.7 8-5.7 21.9-6.4 22.6-1 1-3.4 0-20.6-8.5-13.8-6.7-12.5-6-27.2-15.6-18-11.7-33.1-27.2-40.8-41.5-1.9-3.7-3.5-7-3.6-7.5-.1-.4-.3-1.2-.5-1.7-2.4-7.9-2.6-22.8-.4-29.5.6-1.9 1.3-4.3 1.5-5.2.6-2.8 6.6-13 11-18.8 6.1-7.9 23.6-24.1 28.6-26.4 1-.5 1.9-1.3 1.9-1.8 0-.4.4-.8.9-.8.4 0 3.9-2 7.7-4.5 8-5.3 38.2-20.3 41.1-20.4.6-.1 1.7 2.5 2.4 5.6zm424-2.6c4.1 1.7 7.8 3.5 8.4 4 .5.5 1.7.9 2.6.9 1 0 1.9.3 2.1.7.2.5 1.9 1.6 3.8 2.5 11.2 5.5 30.2 17.8 37.7 24.5 14.3 12.7 21.5 21.5 27 33.3 6.7 14.4 6.7 29.5 0 45.3-7.9 18.5-33.5 41.3-64.7 57.5-11.2 5.7-24.9 11.7-25.5 11-.2-.2-1.1-3.2-1.9-6.8-1.8-7.2-1.8-7-4-15.7-3.6-13.6-18.3-55.7-23-65.7-1.4-3-1.2-4.1 3-13.3.8-1.7 1.4-3.7 1.4-4.5s.4-1.8.8-2.4c1.4-1.5 12.7-33.5 14.8-41.4.2-.8 2.2-8 4.4-15.9s4-15 4-15.8c0-1.9.9-1.7 9.1 1.8zM181.9 388c9.7 19.1 35.9 63.5 38.5 65.2 1.1.7.1 1.2-1.7.9-.4-.1-2.4-.4-4.4-.7s-6.6-1.2-10.2-2-7.7-1.7-9.1-2-6.1-1.4-10.5-2.6c-4.4-1.1-8.7-2.2-9.5-2.3-.8-.2-1.6-.4-1.7-.5-.2-.2-.6-.3-1-.4-.5-.2-2.8-.8-5.3-1.5s-5.1-1.4-5.8-1.5c-3.3-.5-3.3-2.4.2-15.7 1.9-7.4 4.8-17.7 6.5-22.9s3-9.7 3-10 .8-2.8 1.9-5.5c1-2.8 2.2-5.8 2.5-6.8.4-.9.8-1.7 1.1-1.7.2 0 2.7 4.5 5.5 10zm316.2-4.5c.7 2.2 1.4 4.2 1.4 4.5.1.3.5 1.2.8 2 .4.8 1.8 5.3 3.2 10s2.9 9.8 3.4 11.5c.8 2.5 1.7 5.8 3.7 13 .2.5.5 2 .8 3.3s.7 3.1 1 4 .8 3.1 1.1 4.8c.4 2.7.1 3.3-1.8 3.7-1.2.3-5.6 1.5-9.7 2.7-4.1 1.1-8.2 2.2-9 2.4s-3.5.9-6 1.6c-4.3 1.2-5.9 1.5-10.7 2.4-1.3.3-2.6.7-3.1 1-.4.2-2.8.7-5.2 1-2.5.3-6.1 1-8 1.6-1.9.5-4.7 1-6.2 1h-2.7l5.2-7.8c2.9-4.3 5.9-8.9 6.7-10.3.8-1.3 3.7-6.2 6.6-10.9 6.9-11.4 14.6-25.5 21.7-39.3 2.2-4.3 4.3-7.5 4.7-7 .4.4 1.4 2.6 2.1 4.8zM168 475.6c6.9 1.9 15.7 4.1 19.5 4.9 3.9.9 7.9 1.8 9 2 1.1.3 3.4.7 5 1 1.7.3 4.4.8 6 1.2 1.7.3 3.7.7 4.5.8s4.2.7 7.5 1.3c3.3.7 7.8 1.4 10 1.7s7 1 10.7 1.6l6.7 1.1 7.2 9.1c6.7 8.5 20.4 24.7 28.9 34.1 1.9 2.1 9.1 9.5 15.9 16.4l12.3 12.5-2.3 1.9c-4.3 3.3-25.3 17.3-30.4 20.3-10.2 5.9-30.2 15.1-34.6 15.9-.8.2-3.9 1-6.9 1.9-13.6 4-31.5 4.4-42.6.9-20.8-6.4-34.6-24.6-41.2-54.2-1.1-4.7-2-9.2-2-10s-.4-4.2-.8-7.5c-1.5-11.5-.8-47.7 1-57 .3-1.1.5-2.6.5-3.4.1-.8.7-1.1 1.9-.6.9.4 7.3 2.3 14.2 4.1zm352.1-2.9c0 .5.2 1.7.4 2.8 2 10 2.6 43.8 1.1 58-.4 4.4-.9 8.2-1.1 8.5s-.6 2.3-.9 4.5c-3 18.6-12.5 37.6-23.9 47.8-4.6 4.1-14.6 9.4-19.2 10.3-1.6.3-3.3.8-3.9 1.1-2 1.3-20.4 1.1-28.5-.3-18.9-3.3-41.2-13.3-64.6-29-7.7-5.1-15.1-10.2-16.4-11.2l-2.4-1.9 11.4-11.5c13.7-13.9 18.4-18.8 27.5-29.3 6.4-7.5 9.2-10.8 16.9-20.5 8.8-11 8.6-10.9 13.4-11.6 2.5-.4 5.3-.8 6.3-1 .9-.1 3.8-.6 6.5-1 2.6-.3 5.7-.8 6.8-1s4-.7 6.5-1 4.8-.8 5.1-1 2.1-.6 4-.9c11.3-1.9 39.2-8.5 46.4-11 4.4-1.6 8.5-1.9 8.6-.8zM336 496.3c12.9 0 28.1-.3 33.8-.6 5.6-.3 10.2-.4 10.2-.2 0 2.5-41.6 46-44 46-2.3 0-44-43.4-44-45.8 0-.3 4.6-.2 10.3.1 5.6.3 20.8.5 33.7.5z"/><path d="M329.7 272.7c-.2.1-2.3.5-4.8.8-13.7 1.7-29.9 11.6-39.5 24-15.1 19.5-17.4 48.1-5.7 69.3 9.6 17.5 26.2 29.4 45.8 32.8 4.7.9 17.9.8 21.5 0 1.4-.3 3.9-.9 5.5-1.2 8-1.7 21.4-9.4 28-16 12.4-12.4 18.5-26.5 19-44.1 1.1-36.2-26.1-64.7-62.8-65.8-3.7-.1-6.9 0-7 .2z"/></svg>