<svg xmlns="http://www.w3.org/2000/svg" viewBox="0 0 24 24" xml:space="preserve"><path clip-rule="evenodd" fill="none" d="M0 0h24v24H0z"/><linearGradient id="a" gradientUnits="userSpaceOnUse" x1="2" y1="12" x2="22" y2="12"><stop offset="0" style="stop-color:#0087ff"/><stop offset="1" style="stop-color:#00cde9"/></linearGradient><path fill-rule="evenodd" clip-rule="evenodd" fill="url(#a)" d="M2 12.943c.075.772.238 1.518.474 2.23a4.768 4.768 0 0 1 2.115 3.625 10.14 10.14 0 0 0 1.638 1.453c.07-.38.11-.766.11-1.16 0-2.832-1.817-5.293-4.337-6.148zm9.001 6.148a13.33 13.33 0 0 0-.027-.8 12.616 12.616 0 0 0-.081-.786 11.3 11.3 0 0 0-.314-1.517 11.459 11.459 0 0 0-.941-2.339C8.152 10.886 5.603 8.908 2.671 8.16a10.169 10.169 0 0 0-.616 2.323c3.791.94 6.599 4.481 6.599 8.607a9.02 9.02 0 0 1-.302 2.313 9.892 9.892 0 0 0 2.275.596A11.492 11.492 0 0 0 11 19.09zM7.335 7.973a10.617 10.617 0 0 0 3.675 1.03 10.798 10.798 0 0 0 2.945-.134 10.681 10.681 0 0 0 2.71-.896 11.007 11.007 0 0 0 3.188-2.37 10.157 10.157 0 0 0-1.681-1.68c-1.608 1.713-3.823 2.71-6.172 2.71-2.35 0-4.563-.997-6.172-2.71a10.173 10.173 0 0 0-1.681 1.68c.918.977 1.997 1.79 3.188 2.37zm8.773-5.306A9.892 9.892 0 0 0 14.09 2a4.413 4.413 0 0 1-4.207.007 9.894 9.894 0 0 0-1.99.66A6.17 6.17 0 0 0 12 4.248a6.17 6.17 0 0 0 4.108-1.581zm5.837 7.817a10.174 10.174 0 0 0-.619-2.33C16.502 9.379 13 13.864 13 19.091a11.49 11.49 0 0 0 .374 2.91 9.89 9.89 0 0 0 2.275-.597 9.02 9.02 0 0 1-.302-2.313c0-4.126 2.808-7.667 6.6-8.607zm-.407 4.653c.23-.701.388-1.435.462-2.194-2.52.855-4.338 3.316-4.338 6.148 0 .394.041.78.11 1.16.58-.412 1.115-.883 1.595-1.407a4.755 4.755 0 0 1 2.17-3.707z"/></svg>