<svg xmlns="http://www.w3.org/2000/svg" viewBox="0 0 24 24" xml:space="preserve"><path clip-rule="evenodd" fill="none" d="M0 0h24v24H0z"/><linearGradient id="a" gradientUnits="userSpaceOnUse" x1="12" y1="16" x2="12" y2="2"><stop offset=".25" style="stop-color:#fff;stop-opacity:0"/><stop offset="1" style="stop-color:#fff"/></linearGradient><path fill-rule="evenodd" clip-rule="evenodd" fill="url(#a)" d="M17.787 7.313A6.995 6.995 0 0 0 11 2a7 7 0 0 0-6.96 7.738A3.247 3.247 0 0 0 5.25 16h12.4A4.35 4.35 0 0 0 22 11.65a4.343 4.343 0 0 0-4.213-4.337z"/><linearGradient id="b" gradientUnits="userSpaceOnUse" x1="12" y1="16" x2="12" y2="2"><stop offset=".25" style="stop-color:#1d1d33;stop-opacity:0"/><stop offset=".7" style="stop-color:#1d1d33"/></linearGradient><path fill="url(#b)" d="M11 3a5.982 5.982 0 0 1 5.816 4.553l.182.736.757.024A3.33 3.33 0 0 1 21 11.65 3.354 3.354 0 0 1 17.65 15H5.25C4.01 15 3 13.99 3 12.75c0-.921.555-1.74 1.413-2.084l.7-.281-.078-.75A6.007 6.007 0 0 1 11 3m0-1a7 7 0 0 0-6.96 7.738A3.247 3.247 0 0 0 5.25 16h12.4A4.35 4.35 0 0 0 22 11.65a4.343 4.343 0 0 0-4.213-4.337A6.995 6.995 0 0 0 11 2z"/><path fill="#D5DEE8" d="M11.997 17.36c-2.578 0-3.886-.42-5.151-.824-1.248-.4-2.425-.777-4.846-.777a.5.5 0 1 1 0-1c2.577 0 3.885.42 5.15.824 1.247.4 2.425.777 4.847.777s3.6-.377 4.849-.777c1.265-.405 2.575-.824 5.154-.824a.5.5 0 1 1 0 1c-2.423 0-3.602.377-4.85.777-1.265.404-2.575.823-5.153.823zm0 3c-.83 0-1.566-.043-2.251-.13a.5.5 0 0 1 .127-.993 16.7 16.7 0 0 0 2.124.123c.639 0 1.21-.026 1.75-.08.273-.02.52.174.547.449a.5.5 0 0 1-.45.547c-.57.056-1.175.084-1.847.084zm5.67-1.01a.5.5 0 0 1-.143-.98c.983-.294 2.156-.572 4.07-.607a.5.5 0 1 1 .018 1c-1.794.032-2.886.29-3.8.566a.503.503 0 0 1-.144.02zM5.95 19.24a.498.498 0 0 1-.133-.018c-.83-.229-1.931-.463-3.817-.463a.5.5 0 1 1 0-1c2.005 0 3.19.253 4.083.5a.5.5 0 0 1-.133.981z"/></svg>