<svg xmlns="http://www.w3.org/2000/svg" viewBox="0 0 24 24" xml:space="preserve"><path fill="none" d="M0 0h24v24H0z"/><path fill-rule="evenodd" clip-rule="evenodd" fill="#D5DEE8" d="M11.761 6.155a.5.5 0 0 1-.462-.691l.478-1.154a.5.5 0 1 1 .924.383l-.478 1.154a.5.5 0 0 1-.462.308m-3.274-.308.478-1.155a.5.5 0 1 0-.923-.382l-.479 1.153a.5.5 0 0 0 .924.384m1.146 3.37.478-1.154a.5.5 0 1 0-.923-.383L8.71 8.835a.5.5 0 1 0 .923.383m-3.744 0 .48-1.155a.5.5 0 0 0-.924-.383l-.48 1.155a.502.502 0 0 0 .462.691.5.5 0 0 0 .462-.308M4.751 5.847l.48-1.155a.5.5 0 0 0-.924-.383l-.48 1.154a.5.5 0 0 0 .924.384m14.943 0 .48-1.155a.501.501 0 0 0-.924-.383l-.479 1.154a.5.5 0 1 0 .923.384m-3.735 0 .478-1.155a.501.501 0 0 0-.27-.654.502.502 0 0 0-.654.272l-.478 1.153a.5.5 0 1 0 .924.384m1.162 3.37.478-1.154a.5.5 0 1 0-.924-.383l-.478 1.155a.5.5 0 1 0 .924.383m-3.744 0 .48-1.155a.5.5 0 0 0-.924-.383l-.48 1.155a.502.502 0 0 0 .462.691.501.501 0 0 0 .462-.308"/><path fill-rule="evenodd" clip-rule="evenodd" fill="#0072F5" d="M21 12H3c-.552 0-1 1-1 1s.217.719.535.886c.302.159.465.5.465.842V19c0 .553 1 1 1 1s1-.447 1-1v-4c0-.552 1-1 1-1s1 .448 1 1v2c0 .553 1 1 1 1s1-.447 1-1v-2c0-.552 1-1 1-1s1 .448 1 1v6c0 .553 1 1 1 1s1-.447 1-1v-6c0-.552 1-1 1-1s1 .448 1 1v2c0 .553 1 1 1 1s1-.447 1-1v-2c0-.552 1-1 1-1s1 .448 1 1v4c0 .553 1 1 1 1s1-.447 1-1v-4.272c0-.342.162-.683.465-.842C21.783 13.719 22 13 22 13s-.448-1-1-1"/></svg>