<svg xmlns="http://www.w3.org/2000/svg" viewBox="0 0 24 24" xml:space="preserve"><path fill="none" d="M0 0h24v24H0z"/><circle fill-rule="evenodd" clip-rule="evenodd" fill="#FFD02F" cx="16" cy="8" r="6"/><path fill-rule="evenodd" clip-rule="evenodd" fill="#FFF" d="M5.25 20.5a2.753 2.753 0 0 1-2.75-2.75c0-1.126.678-2.127 1.727-2.548l.35-.14-.04-.376A6.508 6.508 0 0 1 11 7.5a6.48 6.48 0 0 1 6.302 4.934l.09.367.38.012A3.828 3.828 0 0 1 21.5 16.65a3.855 3.855 0 0 1-3.85 3.85H5.25z"/><path fill="#1D1D33" d="M11 8a5.981 5.981 0 0 1 5.816 4.554l.182.735.757.024A3.33 3.33 0 0 1 21 16.65 3.354 3.354 0 0 1 17.65 20H5.25A2.253 2.253 0 0 1 3 17.75c0-.92.554-1.739 1.413-2.084l.699-.281-.078-.75A6.007 6.007 0 0 1 11 8m0-1a7 7 0 0 0-6.96 7.738A3.247 3.247 0 0 0 5.25 21h12.4A4.35 4.35 0 0 0 22 16.65a4.343 4.343 0 0 0-4.212-4.337A6.995 6.995 0 0 0 11 7z"/></svg>