<svg xmlns="http://www.w3.org/2000/svg" viewBox="0 0 24 24" xml:space="preserve"><path clip-rule="evenodd" fill="none" d="M0 0h24v24H0z"/><path fill-rule="evenodd" clip-rule="evenodd" fill="#FFF" d="M5.25 15.5a2.753 2.753 0 0 1-2.75-2.75c0-1.127.678-2.127 1.727-2.548l.35-.14-.04-.376A6.508 6.508 0 0 1 11 2.5a6.48 6.48 0 0 1 6.302 4.933l.09.368.38.011A3.828 3.828 0 0 1 21.5 11.65a3.855 3.855 0 0 1-3.85 3.85H5.25z"/><path fill="#1D1D33" d="M11 3a5.981 5.981 0 0 1 5.816 4.553l.182.736.757.024A3.33 3.33 0 0 1 21 11.65 3.354 3.354 0 0 1 17.65 15H5.25C4.01 15 3 13.99 3 12.75c0-.921.554-1.739 1.413-2.084l.699-.281-.077-.75A6.007 6.007 0 0 1 11 3m0-1a7 7 0 0 0-6.96 7.738A3.247 3.247 0 0 0 5.25 16h12.4A4.35 4.35 0 0 0 22 11.65a4.342 4.342 0 0 0-4.213-4.337A6.995 6.995 0 0 0 11 2z"/><path fill-rule="evenodd" clip-rule="evenodd" fill="#0072F5" d="M11.534 19.04a.5.5 0 0 1-.462-.691l.479-1.155a.5.5 0 0 1 .924.383l-.479 1.154a.5.5 0 0 1-.462.309zm-3.274-.309.478-1.154a.5.5 0 0 0-.923-.383l-.479 1.155a.5.5 0 0 0 .924.382zm1.146 2.871.479-1.155a.5.5 0 0 0-.924-.383l-.479 1.155a.5.5 0 0 0 .924.383zm-3.743 0 .478-1.155a.5.5 0 1 0-.924-.382l-.478 1.155a.5.5 0 1 0 .924.382zm-1.139-2.87.479-1.156a.5.5 0 0 0-.924-.383l-.478 1.156a.5.5 0 0 0 .923.382zm14.944 0 .478-1.155a.5.5 0 0 0-.924-.383l-.478 1.155a.5.5 0 0 0 .924.382zm-3.737 0 .479-1.155a.5.5 0 0 0-.924-.383l-.478 1.155a.5.5 0 0 0 .923.382zm1.164 2.87.477-1.155a.5.5 0 1 0-.924-.382l-.477 1.155a.5.5 0 1 0 .924.382zm-3.745 0 .479-1.155a.5.5 0 0 0-.924-.383l-.478 1.155a.5.5 0 0 0 .923.383z"/></svg>