<svg xmlns="http://www.w3.org/2000/svg" viewBox="0 0 24 24" xml:space="preserve"><path fill="none" d="M0 0h24v24H0z"/><path fill-rule="evenodd" clip-rule="evenodd" fill="#0072F5" d="M17.261 22.167a.5.5 0 0 1-.27-.654l1.627-3.926a.5.5 0 1 1 .924.383l-1.627 3.926a.5.5 0 0 1-.654.27m-14.29-.269L4.6 17.971a.5.5 0 0 0-.924-.383l-1.627 3.926a.5.5 0 1 0 .924.383m3.735 0 1.628-3.926a.5.5 0 0 0-.924-.383l-1.627 3.926a.5.5 0 0 0 .923.383m3.736 0 1.627-3.927a.5.5 0 1 0-.924-.382L9.52 21.514a.5.5 0 1 0 .924.383m3.736 0 1.627-3.927a.5.5 0 0 0-.924-.383l-1.627 3.926a.5.5 0 0 0 .924.383m1.868 0 .343-.829a.5.5 0 1 0-.924-.383l-.343.83a.5.5 0 1 0 .924.382m-3.736 0 .344-.828a.5.5 0 0 0-.925-.383l-.343.829a.5.5 0 1 0 .924.383m-3.736 0 .344-.829a.5.5 0 0 0-.924-.383l-.344.829a.5.5 0 1 0 .924.383m-3.735 0 .343-.829a.5.5 0 0 0-.924-.383l-.343.83a.5.5 0 0 0 .924.382m12.22-2.446.614-1.481a.5.5 0 0 0-.924-.383l-.614 1.481a.5.5 0 0 0 .924.383m-3.735 0 .613-1.48a.5.5 0 1 0-.924-.384l-.613 1.481a.5.5 0 1 0 .924.383m-3.736 0 .614-1.48a.5.5 0 0 0-.924-.384l-.614 1.481a.5.5 0 1 0 .924.383m-3.736 0 .614-1.48a.5.5 0 0 0-.924-.383l-.614 1.48a.5.5 0 0 0 .924.384"/><path fill-rule="evenodd" clip-rule="evenodd" fill="#FFF" d="M5.249 15.5a2.753 2.753 0 0 1-2.75-2.75c0-1.127.678-2.127 1.727-2.549l.348-.14-.038-.374A6.508 6.508 0 0 1 11 2.499a6.48 6.48 0 0 1 6.302 4.934l.09.367.38.012a3.828 3.828 0 0 1 3.728 3.837 3.854 3.854 0 0 1-3.85 3.85H5.25z"/><path fill="#1D1D33" d="M11 3a5.981 5.981 0 0 1 5.816 4.553l.182.735.757.024a3.33 3.33 0 0 1 3.244 3.337A3.354 3.354 0 0 1 17.65 15H5.25C4.01 15 3 13.99 3 12.75c0-.92.555-1.739 1.413-2.084l.7-.28-.078-.75A6.007 6.007 0 0 1 11 3m0-1a7 7 0 0 0-6.96 7.737A3.247 3.247 0 0 0 5.25 16h12.4A4.35 4.35 0 0 0 22 11.65a4.343 4.343 0 0 0-4.213-4.337A6.995 6.995 0 0 0 11 2z"/></svg>