<svg xmlns="http://www.w3.org/2000/svg" viewBox="0 0 24 24" xml:space="preserve"><path fill="none" d="M0 0h24v24H0z"/><path fill-rule="evenodd" clip-rule="evenodd" fill="#FFF" d="M5.25 13.5a2.753 2.753 0 0 1-2.75-2.75c0-1.126.678-2.126 1.727-2.548l.35-.14-.04-.376A6.508 6.508 0 0 1 11 .5a6.48 6.48 0 0 1 6.302 4.933l.09.368.38.012A3.828 3.828 0 0 1 21.5 9.65a3.855 3.855 0 0 1-3.85 3.85H5.25z"/><path fill="#1D1D33" d="M11 1a5.981 5.981 0 0 1 5.816 4.553l.182.736.757.024A3.33 3.33 0 0 1 21 9.65 3.354 3.354 0 0 1 17.65 13H5.25C4.01 13 3 11.99 3 10.75c0-.921.555-1.74 1.413-2.084l.7-.281-.078-.75A6.007 6.007 0 0 1 11 1m0-1a7 7 0 0 0-6.96 7.738A3.247 3.247 0 0 0 5.25 14h12.4A4.35 4.35 0 0 0 22 9.65a4.343 4.343 0 0 0-4.213-4.337A6.995 6.995 0 0 0 11 0z"/><path fill="#0072F5" d="M6.503 18.286a.499.499 0 0 1-.683.183l-.817-.472v.944a.5.5 0 1 1-1 0v-.943l-.816.471a.5.5 0 0 1-.5-.866l.816-.471-.816-.472a.5.5 0 1 1 .5-.866l.816.471v-.943a.5.5 0 1 1 1 0v.944l.817-.472a.5.5 0 0 1 .5.866l-.816.471.816.472a.5.5 0 0 1 .183.683zm14.81-.683-.816-.471.817-.472a.5.5 0 1 0-.5-.866l-.817.471v-.943a.5.5 0 1 0-1 0v.944l-.817-.472a.5.5 0 1 0-.5.866l.816.472-.816.471a.5.5 0 1 0 .5.866l.817-.472v.944a.5.5 0 1 0 1 0v-.943l.816.471a.5.5 0 0 0 .5-.866zm-7.497 0L13 17.132l.816-.472a.5.5 0 1 0-.5-.866l-.816.471v-.943a.5.5 0 1 0-1 0v.943l-.816-.471a.5.5 0 0 0-.5.866l.816.472-.816.471a.5.5 0 1 0 .5.866l.816-.471v.943a.5.5 0 1 0 1 0v-.943l.816.471a.5.5 0 0 0 .5-.866zm-3.565 2.228a.5.5 0 0 0-.683-.183l-.816.47v-.942a.5.5 0 1 0-1 0v.943l-.817-.472a.5.5 0 1 0-.5.866l.816.472-.816.471a.5.5 0 1 0 .5.867l.817-.472v.944a.5.5 0 1 0 1 0v-.944l.816.472a.5.5 0 0 0 .5-.866l-.816-.472.816-.471a.5.5 0 0 0 .183-.683zm7.497 0a.5.5 0 0 0-.683-.183l-.817.471v-.943a.5.5 0 1 0-1 0v.943l-.816-.471a.5.5 0 1 0-.5.866l.816.471-.816.472a.5.5 0 1 0 .5.866l.816-.471v.943a.5.5 0 1 0 1 0v-.944l.817.472a.5.5 0 0 0 .5-.866l-.816-.472.816-.471a.5.5 0 0 0 .183-.683z"/></svg>