<svg xmlns="http://www.w3.org/2000/svg" viewBox="0 0 20 20" style="enable-background:new 0 0 20 20" xml:space="preserve"><path d="M16.9 8.6c0-1.2-.9-2.2-2.1-2.2s-2.2.9-2.2 2.1v.2c0 .4.1.8.3 1.1H3.6c-.3-.1-.5.2-.5.5s.2.6.5.6h11.2c.1 0 .1-.1.2-.1 1.1-.1 2-1.1 1.9-2.2zm-2.1 1.1c-.6 0-1.1-.5-1.1-1.1s.5-1.1 1.1-1.1 1.1.5 1.1 1.1c0 .6-.5 1.1-1.1 1.1zm-3.7 2.7H3.6c-.3.1-.5.4-.5.7s.2.5.5.5h5.7c-.2.3-.3.7-.3 1.1 0 1.2.9 2.2 2.1 2.2s2.2-.9 2.2-2.1v-.2c0-1.1-.9-2.1-2.2-2.2zm0 3.4c-.6 0-1.1-.5-1.2-1.1 0-.6.5-1.1 1.1-1.2.6 0 1.1.5 1.2 1.1 0 .7-.4 1.2-1.1 1.2zM3.6 8.2h4.8c0-.1 0-.2.1-.2 1.1-.1 2-1.1 2-2.2 0-1.2-.9-2.2-2.1-2.2s-2.2 1-2.1 2.2c0 .4.1.8.3 1.1h-3c-.3.1-.5.3-.5.6s.2.6.5.7zm4.7-3.5c.6 0 1.1.5 1.1 1.1s-.5 1.1-1.1 1.1c-.5.1-1-.4-1.1-1.1 0-.6.5-1.1 1.1-1.1z"/></svg>