<svg width="180" height="180" viewBox="0 0 180 180" xmlns="http://www.w3.org/2000/svg"><path d="M81.28 88H68.413l19.298 19.298L81.279 88Zm2.107 0h13.226L90 107.838 83.387 88Zm15.334 0h12.865l-19.298 19.298L98.721 88Zm-32.928-2.207L73.586 78h32.828l.5.5 7.293 7.293L115.414 87l-24.707 24.707-.707.707L64.586 87l1.207-1.207Zm2.621.207L74 80.414 79.586 86H68.414Zm16 0L90 80.414 95.586 86H84.414Zm16 0L106 80.414 111.586 86h-11.172Zm-8-6h11.172L98 85.586 92.414 80ZM82 85.586 87.586 80H76.414L82 85.586ZM17.414 0 .707 16.707 0 17.414V0h17.414ZM4.28 0 0 12.838V0h4.28Zm10.307 0L2.288 12.298 6.388 0h8.198ZM180 17.414 162.586 0H180v17.414ZM165.414 0l12.298 12.298L173.612 0h-8.198ZM180 12.838 175.72 0H180v12.838ZM0 163h16.414l.5.5 7.293 7.293L25.414 172l-8 8H0v-17Zm0 10h6.613l-2.334 7H0v-7Zm14.586 7 7-7H8.72l-2.334 7h8.199ZM0 165.414 5.586 171H0v-5.586ZM10.414 171 16 165.414 21.586 171H10.414Zm-8-6h11.172L8 170.586 2.414 165ZM180 163h-16.414l-7.793 7.793-1.207 1.207 8 8H180v-17Zm-14.586 17-7-7h12.865l2.334 7h-8.199ZM180 173h-6.613l2.334 7H180v-7Zm-21.586-2 5.586-5.586 5.586 5.586h-11.172ZM180 165.414 174.414 171H180v-5.586Zm-8 5.172 5.586-5.586h-11.172l5.586 5.586ZM152.933 25.653l1.414 1.414-33.941 33.942-1.415-1.415 33.942-33.94Zm1.414 127.28-1.414 1.414-33.942-33.941 1.415-1.415 33.94 33.942Zm-127.28 1.414-1.414-1.414 33.941-33.942 1.415 1.415-33.942 33.94Zm-1.414-127.28 1.414-1.414L61.01 59.594l-1.415 1.415-33.94-33.942ZM0 85a4 4 0 1 1 0 8v-8Zm180 0a4 4 0 1 0 0 8v-8ZM94 0a4 4 0 1 1-8 0h8Zm0 180a4 4 0 1 0-8 0h8Z" fill-rule="evenodd"/></svg>