<svg width="120" height="120" viewBox="0 0 120 120" xmlns="http://www.w3.org/2000/svg"><path d="M9 0h2v20H9V0Zm25.134.84 1.732 1-10 17.32-1.732-1 10-17.32Zm-20 20 1.732 1-10 17.32-1.732-1 10-17.32ZM58.16 4.134l1 1.732-17.32 10-1-1.732 17.32-10Zm-40 40 1 1.732-17.32 10-1-1.732 17.32-10ZM80 9v2H60V9h20ZM20 69v2H0v-2h20Zm79.32-55-1 1.732-17.32-10L82 4l17.32 10Zm-80 80-1 1.732-17.32-10L2 84l17.32 10Zm96.546-75.84-1.732 1-10-17.32 1.732-1 10 17.32Zm-100 100-1.732 1-10-17.32 1.732-1 10 17.32ZM38.16 24.134l1 1.732-17.32 10-1-1.732 17.32-10ZM60 29v2H40v-2h20Zm19.32 5-1 1.732-17.32-10L62 24l17.32 10Zm16.546 4.16-1.732 1-10-17.32 1.732-1 10 17.32ZM111 40h-2V20h2v20Zm3.134.84 1.732 1-10 17.32-1.732-1 10-17.32ZM40 49v2H20v-2h20Zm19.32 5-1 1.732-17.32-10L42 44l17.32 10Zm16.546 4.16-1.732 1-10-17.32 1.732-1 10 17.32ZM91 60h-2V40h2v20Zm3.134.84 1.732 1-10 17.32-1.732-1 10-17.32Zm24.026 3.294 1 1.732-17.32 10-1-1.732 17.32-10ZM39.32 74l-1 1.732-17.32-10L22 64l17.32 10Zm16.546 4.16-1.732 1-10-17.32 1.732-1 10 17.32ZM71 80h-2V60h2v20Zm3.134.84 1.732 1-10 17.32-1.732-1 10-17.32Zm24.026 3.294 1 1.732-17.32 10-1-1.732 17.32-10ZM120 89v2h-20v-2h20Zm-84.134 9.16-1.732 1-10-17.32 1.732-1 10 17.32ZM51 100h-2V80h2v20Zm3.134.84 1.732 1-10 17.32-1.732-1 10-17.32Zm24.026 3.294 1 1.732-17.32 10-1-1.732 17.32-10ZM100 109v2H80v-2h20Zm19.32 5-1 1.732-17.32-10 1-1.732 17.32 10ZM31 120h-2v-20h2v20Z" fill-rule="evenodd"/></svg>