<svg width="48" height="64" viewBox="0 0 48 64" xmlns="http://www.w3.org/2000/svg"><path d="M48 28v-4L36 12 24 24 12 12 0 24v4l4 4-4 4v4l12 12 12-12 12 12 12-12v-4l-4-4 4-4ZM8 32l-6-6 10-10 10 10-6 6 6 6-10 10L2 38l6-6Zm12 0 4-4 4 4-4 4-4-4Zm12 0-6-6 10-10 10 10-6 6 6 6-10 10-10-10 6-6ZM0 16 10 6 4 0h4l4 4 4-4h4l-6 6 10 10L34 6l-6-6h4l4 4 4-4h4l-6 6 10 10v4L36 8 24 20 12 8 0 20v-4Zm0 32 10 10-6 6h4l4-4 4 4h4l-6-6 10-10 10 10-6 6h4l4-4 4 4h4l-6-6 10-10v-4L36 56 24 44 12 56 0 44v4Z" fill-rule="evenodd"/></svg>